<?xml version="1.0" standalone="no"?>
<!DOCTYPE svg PUBLIC "-//W3C//DTD SVG 20010904//EN"
 "http://www.w3.org/TR/2001/REC-SVG-20010904/DTD/svg10.dtd">
<svg version="1.0" xmlns="http://www.w3.org/2000/svg"
 width="512.000000pt" height="512.000000pt" viewBox="0 0 512.000000 512.000000"
 preserveAspectRatio="xMidYMid meet">
<metadata>
Created by potrace 1.14, written by Peter Selinger 2001-2017
</metadata>
<g transform="translate(0.000000,512.000000) scale(0.100000,-0.100000)"
fill="#000000" stroke="none">
<path d="M2437 3944 c-1 -1 -40 -5 -87 -9 -399 -30 -870 -186 -1245 -411 -49
-30 -97 -57 -105 -61 -43 -20 -371 -260 -454 -333 -16 -14 -52 -45 -80 -70
-93 -82 -317 -314 -391 -405 -58 -71 -71 -94 -63 -108 32 -61 277 -325 442
-476 166 -152 422 -340 631 -464 123 -73 324 -174 400 -203 28 -10 61 -24 75
-31 46 -23 333 -111 450 -137 141 -31 199 -40 345 -53 144 -12 396 -7 525 11
89 13 127 20 230 43 603 132 1204 477 1705 978 120 120 185 193 264 293 l42
53 -38 47 c-443 557 -1116 1026 -1746 1216 -113 34 -316 82 -385 91 -20 3 -46
7 -57 9 -63 12 -448 29 -458 20z m288 -427 c473 -79 826 -516 802 -992 -8
-157 -23 -221 -80 -355 -6 -14 -11 -27 -11 -30 -1 -3 -20 -36 -43 -75 -117
-198 -313 -355 -528 -424 -121 -39 -140 -42 -285 -46 -188 -5 -320 26 -487
117 -248 134 -433 388 -488 668 -13 70 -14 265 -1 340 8 41 12 78 9 83 -2 4
-16 7 -31 7 -15 0 -43 4 -62 9 -19 5 -54 12 -77 15 -46 6 -47 5 -58 -64 -3
-19 -8 -48 -11 -65 -11 -60 -6 -262 9 -347 40 -225 143 -435 292 -596 37 -39
65 -72 63 -72 -27 0 -324 140 -436 205 -109 64 -327 207 -342 225 -3 3 -21 17
-40 30 -65 46 -244 203 -350 307 l-105 103 105 103 c92 89 227 211 286 257
159 123 268 199 394 275 112 67 372 196 448 222 54 18 54 18 71 -4 10 -12 43
-50 74 -84 l56 -61 48 42 c102 90 263 166 423 201 67 15 112 18 210 14 69 -3
134 -6 145 -8z m741 -119 c107 -43 280 -130 387 -195 48 -29 90 -53 92 -53 10
0 247 -173 331 -241 124 -102 144 -120 269 -242 l110 -107 -115 -113 c-321
-313 -702 -572 -1063 -721 -97 -40 -111 -43 -82 -18 34 29 131 147 169 206 64
101 132 254 152 344 27 126 35 194 36 302 0 307 -113 594 -320 813 -30 31 -53
57 -50 57 3 0 41 -14 84 -32z"/>
<path d="M2433 3193 c-78 -15 -231 -88 -285 -135 l-37 -33 42 -46 c23 -25 71
-79 107 -119 36 -41 86 -98 113 -127 26 -29 47 -56 47 -59 0 -3 -12 -3 -27 -1
-16 3 -113 19 -218 37 -104 17 -200 34 -212 36 -19 5 -22 0 -33 -50 -59 -284
76 -573 328 -704 320 -167 707 -48 871 268 175 335 31 743 -314 892 -116 50
-256 65 -382 41z"/>
</g>
</svg>
